<svg width="41" height="31" viewBox="0 0 41 31" fill="none" xmlns="http://www.w3.org/2000/svg">
<path d="M3.50665 7.55048H9.68618C10.0098 7.55048 10.2721 7.28821 10.2721 6.96454C10.2721 6.64087 10.0098 6.3786 9.68618 6.3786H3.50665C3.18306 6.3786 2.92072 6.64087 2.92072 6.96454C2.92072 7.28821 3.18298 7.55048 3.50665 7.55048Z" fill="#09A66D"/>
<path d="M9.47448 10.3713H7.03339C6.70979 10.3713 6.44745 10.6336 6.44745 10.9573C6.44745 11.2809 6.70979 11.5432 7.03339 11.5432H9.47448C9.79807 11.5432 10.0604 11.2809 10.0604 10.9573C10.0604 10.6336 9.79807 10.3713 9.47448 10.3713Z" fill="#09A66D"/>
<path d="M1.05566 14.4346H7.03316C7.35676 14.4346 7.6191 14.1723 7.6191 13.8486C7.6191 13.525 7.35676 13.2627 7.03316 13.2627H1.05566C0.73207 13.2627 0.469727 13.525 0.469727 13.8486C0.469727 14.1723 0.73207 14.4346 1.05566 14.4346Z" fill="#09A66D"/>
<path d="M10.2721 24.8223C10.2721 24.4986 10.0098 24.2363 9.68618 24.2363H3.50665C3.18306 24.2363 2.92072 24.4986 2.92072 24.8223C2.92072 25.1459 3.18306 25.4082 3.50665 25.4082H9.68618C10.0098 25.4082 10.2721 25.1459 10.2721 24.8223Z" fill="#09A66D"/>
<path d="M9.47448 20.2437H7.03339C6.70979 20.2437 6.44745 20.5059 6.44745 20.8296C6.44745 21.1533 6.70979 21.4155 7.03339 21.4155H9.47448C9.79807 21.4155 10.0604 21.1533 10.0604 20.8296C10.0604 20.5059 9.79807 20.2437 9.47448 20.2437Z" fill="#09A66D"/>
<path d="M7.6191 17.9382C7.6191 17.6145 7.35676 17.3522 7.03316 17.3522H1.05566C0.73207 17.3522 0.469727 17.6145 0.469727 17.9382C0.469727 18.2618 0.73207 18.5241 1.05566 18.5241H7.03316C7.35676 18.5241 7.6191 18.2618 7.6191 17.9382Z" fill="#09A66D"/>
<path d="M25.4329 8.8489C25.7565 8.8489 26.0188 8.58664 26.0188 8.26297V7.36859C26.0188 7.04492 25.7565 6.78265 25.4329 6.78265C25.1092 6.78265 24.8469 7.04492 24.8469 7.36859V8.26297C24.8469 8.58664 25.1092 8.8489 25.4329 8.8489Z" fill="#09A66D"/>
<path d="M31.8754 9.4511C31.6465 9.22235 31.2756 9.22235 31.0468 9.4511L30.4144 10.0835C30.1855 10.3124 30.1855 10.6834 30.4144 10.9122C30.6433 11.141 31.0142 11.1409 31.243 10.9122L31.8754 10.2798C32.1042 10.0509 32.1042 9.68001 31.8754 9.4511Z" fill="#09A66D"/>
<path d="M33.0627 15.3075C32.739 15.3075 32.4768 15.5698 32.4768 15.8934C32.4768 16.2171 32.739 16.4794 33.0627 16.4794H33.957C34.2807 16.4794 34.5429 16.2171 34.5429 15.8934C34.5429 15.5698 34.2807 15.3075 33.957 15.3075H33.0627Z" fill="#09A66D"/>
<path d="M31.243 20.8746C31.0141 20.6458 30.6432 20.6458 30.4144 20.8746C30.1855 21.1035 30.1855 21.4744 30.4144 21.7032L31.0468 22.3357C31.2758 22.5645 31.6466 22.5644 31.8755 22.3357C32.1043 22.1068 32.1043 21.7358 31.8755 21.507L31.243 20.8746Z" fill="#09A66D"/>
<path d="M24.8469 23.5239V24.4182C24.8469 24.7418 25.1092 25.0041 25.4329 25.0041C25.7565 25.0041 26.0188 24.7418 26.0188 24.4182V23.5239C26.0188 23.2002 25.7565 22.9379 25.4329 22.9379C25.1092 22.9379 24.8469 23.2003 24.8469 23.5239Z" fill="#09A66D"/>
<path d="M19.6231 20.8746L18.9907 21.507C18.7619 21.7359 18.7619 22.1068 18.9907 22.3357C19.2196 22.5645 19.5906 22.5644 19.8193 22.3357L20.4517 21.7032C20.6805 21.4743 20.6805 21.1034 20.4517 20.8746C20.223 20.6458 19.852 20.6458 19.6231 20.8746Z" fill="#09A66D"/>
<path d="M16.9078 15.3075C16.5842 15.3075 16.3219 15.5698 16.3219 15.8934C16.3219 16.2171 16.5842 16.4794 16.9078 16.4794H17.8022C18.1258 16.4794 18.3881 16.2171 18.3881 15.8934C18.3881 15.5698 18.1258 15.3075 17.8022 15.3075H16.9078Z" fill="#09A66D"/>
<path d="M20.4518 10.0835L19.8194 9.4511C19.5905 9.22235 19.2195 9.22235 18.9908 9.4511C18.7619 9.68001 18.7619 10.0509 18.9908 10.2798L19.6232 10.9122C19.8521 11.141 20.223 11.1409 20.4518 10.9122C20.6806 10.6834 20.6806 10.3124 20.4518 10.0835Z" fill="#09A66D"/>
<path d="M28.5836 15.8935C28.5836 15.5698 28.3214 15.3075 27.9977 15.3075H26.0188V10.9572C26.0188 10.6335 25.7565 10.3713 25.4329 10.3713C25.1092 10.3713 24.8469 10.6335 24.8469 10.9572V15.8935C24.8469 16.2171 25.1092 16.4794 25.4329 16.4794H27.9977C28.3213 16.4794 28.5836 16.2171 28.5836 15.8935Z" fill="#09A66D"/>
<path d="M36.5432 15.7967C36.8662 15.7771 37.1122 15.4994 37.0926 15.1764C36.7198 9.02773 31.5983 4.21124 25.4328 4.21124C18.9912 4.21124 13.7506 9.45187 13.7506 15.8935C13.7506 22.3351 18.9912 27.5757 25.4328 27.5757C31.2038 27.5757 36.1281 23.3474 36.9848 17.6416C37.0328 17.3216 36.8123 17.0232 36.4923 16.9751C36.173 16.9273 35.8739 17.1475 35.8258 17.4676C35.0563 22.5937 30.6301 26.4039 25.4328 26.4039C19.6374 26.4039 14.9225 21.689 14.9225 15.8936C14.9225 10.0982 19.6374 5.3832 25.4328 5.3832C30.9798 5.3832 35.5875 9.71609 35.9228 15.2475C35.9423 15.5703 36.2198 15.8155 36.5432 15.7967Z" fill="#09A66D"/>
<path d="M25.4332 0.856628C23.3722 0.856628 21.3529 1.28421 19.4943 2.08382H9.15607C8.83247 2.08382 8.57013 2.34608 8.57013 2.66975C8.57013 2.99343 8.83247 3.25569 9.15607 3.25569H17.2899C16.1901 3.9635 15.1777 4.81725 14.2851 5.80288C14.0679 6.04264 14.0861 6.41319 14.326 6.63046C14.5659 6.84772 14.9363 6.82936 15.1536 6.58952C17.7788 3.69093 21.5256 2.0285 25.4332 2.0285C33.0783 2.0285 39.2982 8.24827 39.2982 15.8934C39.2982 23.5385 33.0784 29.7584 25.4332 29.7584C17.788 29.7584 11.5683 23.5386 11.5683 15.8934C11.5683 13.2162 12.333 10.6178 13.7797 8.37889C13.9554 8.1071 13.8774 7.74444 13.6056 7.56882C13.3338 7.39327 12.9711 7.47108 12.7954 7.74296C11.2259 10.1717 10.3964 12.9901 10.3964 15.8934C10.3964 21.1876 13.1468 25.8511 17.2936 28.5312H9.15614C8.83255 28.5312 8.57021 28.7934 8.57021 29.1171C8.57021 29.4408 8.83255 29.703 9.15614 29.703H19.4862C21.3112 30.492 23.3219 30.9302 25.4333 30.9302C33.7245 30.9302 40.47 24.1848 40.47 15.8934C40.47 7.6021 33.7245 0.856628 25.4332 0.856628Z" fill="#09A66D"/>
</svg>
