<svg width="29" height="41" viewBox="0 0 29 41" fill="none" xmlns="http://www.w3.org/2000/svg">
<path d="M9.15574 28.7151H19.5469C19.8706 28.7151 20.1329 28.4527 20.1329 28.1291C20.1329 27.8055 19.8706 27.5432 19.5469 27.5432H9.15574C8.83215 27.5432 8.5698 27.8055 8.5698 28.1291C8.5698 28.4527 8.83215 28.7151 9.15574 28.7151ZM10.9918 15.2727H17.9482C18.4787 15.2727 18.9386 14.9316 19.0927 14.424L20.5527 9.61351C20.6639 9.24734 20.5968 8.86101 20.3689 8.55367C20.141 8.24632 19.7908 8.07007 19.4082 8.07007H18.8885L17.8264 5.41523C17.5824 4.80398 16.9993 4.40906 16.3411 4.40906H12.5989C11.9407 4.40906 11.3576 4.80398 11.1135 5.41492L10.0514 8.06999H9.53176C9.1491 8.06999 8.79895 8.24625 8.57098 8.55367C8.34301 8.86109 8.27605 9.24734 8.38715 9.61351L9.84723 14.424C10.0013 14.9316 10.4612 15.2727 10.9918 15.2727ZM9.51231 9.25164C9.52996 9.22773 12.6993 9.2496 12.722 9.24187C13.0456 9.24187 13.3079 8.97953 13.3079 8.65593C13.3079 8.33234 13.0456 8.06999 12.722 8.06999H11.3136L12.2015 5.85C12.2668 5.68656 12.4228 5.58093 12.5989 5.58093H16.3411C16.5172 5.58093 16.6731 5.68656 16.7384 5.85015L17.6264 8.06999H15.4563C15.1326 8.06999 14.8704 8.33234 14.8704 8.65593C14.8704 8.97953 15.1326 9.24187 15.4563 9.24187C15.476 9.24187 19.4126 9.2314 19.4276 9.25164C19.445 9.27515 17.9713 14.059 17.9713 14.0837C17.9713 14.1357 10.9717 14.0939 10.9686 14.0837C10.9611 14.0591 9.49488 9.27507 9.51231 9.25164ZM9.15574 34.5604C8.83215 34.5604 8.5698 34.8227 8.5698 35.1463C8.5698 35.4699 8.83215 35.7323 9.15574 35.7323H19.5469C19.8706 35.7323 20.1329 35.4699 20.1329 35.1463C20.1329 34.8227 19.8706 34.5604 19.5469 34.5604H9.15574ZM24.8204 32.8026C24.8204 32.479 24.5581 32.2166 24.2344 32.2166H9.15574C8.83215 32.2166 8.5698 32.479 8.5698 32.8026C8.5698 33.1262 8.83215 33.3885 9.15574 33.3885H24.2344C24.5581 33.3885 24.8204 33.1262 24.8204 32.8026ZM27.75 26.5423C28.0737 26.5423 28.336 26.28 28.336 25.9564V3.82312C28.336 2.20765 27.0218 0.893433 25.4063 0.893433H3.53363C1.91816 0.893433 0.603943 2.20765 0.603943 3.82312V37.9637C0.603943 39.5792 1.91816 40.8934 3.53363 40.8934H25.4064C27.0218 40.8934 28.3361 39.5792 28.3361 37.9637V28.6908C28.3361 28.3672 28.0738 28.1048 27.7501 28.1048C27.4265 28.1048 27.1642 28.3672 27.1642 28.6908V37.9637C27.1642 38.933 26.3756 39.7216 25.4064 39.7216H3.53363C2.56433 39.7216 1.77582 38.933 1.77582 37.9637V3.82312C1.77582 2.85382 2.56433 2.06531 3.53363 2.06531H25.4064C26.3756 2.06531 27.1642 2.85382 27.1642 3.82312V25.9564C27.1641 26.28 27.4264 26.5423 27.75 26.5423ZM6.83934 29.1644C6.55082 29.168 6.24824 29.1709 5.9709 29.1723C6.16793 28.9048 6.41715 28.5597 6.72785 28.1157C7.00035 27.7264 7.19316 27.374 7.2434 27.0078C7.2516 26.9478 7.26738 26.8401 7.26738 26.7828C7.26738 25.9098 6.55715 25.1995 5.6841 25.1995C4.92926 25.1995 4.2759 25.7366 4.13051 26.4766C4.06816 26.7941 4.27496 27.1021 4.59254 27.1644C4.91012 27.2268 5.21808 27.02 5.28043 26.7024C5.31808 26.5105 5.48785 26.3714 5.6841 26.3714C5.90113 26.3714 6.07949 26.5403 6.09449 26.7536C6.10934 26.9641 6.00191 27.1092 5.76777 27.4437C5.15215 28.3234 4.78488 28.8042 4.58762 29.0625C4.24316 29.5135 4.07855 30.1013 4.67519 30.3002C4.75215 30.3258 6.29887 30.3433 6.85402 30.3362C7.17762 30.3322 7.4366 30.0666 7.43254 29.743C7.42848 29.4194 7.16012 29.1582 6.83934 29.1644ZM24.2344 25.1994H9.15574C8.83215 25.1994 8.5698 25.4618 8.5698 25.7854C8.5698 26.109 8.83215 26.3713 9.15574 26.3713H24.2344C24.5581 26.3713 24.8204 26.109 24.8204 25.7854C24.8204 25.4618 24.5581 25.1994 24.2344 25.1994ZM5.77605 32.2166C5.02121 32.2166 4.36785 32.7537 4.22246 33.4937C4.16012 33.8112 4.36691 34.1192 4.68449 34.1816C5.00183 34.2438 5.30996 34.0371 5.37238 33.7195C5.41004 33.5277 5.5798 33.3885 5.77605 33.3885C6.00293 33.3885 6.18746 33.573 6.18746 33.7999C6.18746 34.0268 6.00293 34.2113 5.77605 34.2113C5.45246 34.2113 5.19012 34.4737 5.19012 34.7973C5.19012 35.1209 5.45246 35.3832 5.77605 35.3832C6.00293 35.3832 6.18746 35.5677 6.18746 35.7946C6.18746 36.0215 6.00293 36.206 5.77605 36.206C5.57191 36.206 5.39676 36.0541 5.36863 35.8524C5.36598 35.8335 5.36465 35.8141 5.36465 35.7946C5.36465 35.471 5.1023 35.2087 4.77871 35.2087C4.45512 35.2087 4.19277 35.471 4.19277 35.7946C4.19277 36.6552 4.90691 37.3779 5.77605 37.3779C6.6491 37.3779 7.35933 36.6677 7.35933 35.7946C7.35933 35.4168 7.2259 35.0698 7.00418 34.7973C7.2259 34.5248 7.35933 34.1777 7.35933 33.7999C7.35933 32.9269 6.6491 32.2166 5.77605 32.2166ZM5.77605 23.2823C6.09965 23.2823 6.36199 23.02 6.36199 22.6964V18.7987C6.36199 18.4752 6.09965 18.2128 5.77605 18.2128H4.94293C4.61933 18.2128 4.35699 18.4752 4.35699 18.7987C4.35699 19.1223 4.61933 19.3847 4.94293 19.3847H5.19012V22.6964C5.19012 23.02 5.45246 23.2823 5.77605 23.2823ZM9.15574 21.7284H19.5469C19.8706 21.7284 20.1329 21.4661 20.1329 21.1425C20.1329 20.8189 19.8706 20.5566 19.5469 20.5566H9.15574C8.83215 20.5566 8.5698 20.8189 8.5698 21.1425C8.5698 21.4661 8.83215 21.7284 9.15574 21.7284ZM24.2344 18.2128H9.15574C8.83215 18.2128 8.5698 18.4752 8.5698 18.7987C8.5698 19.1223 8.83215 19.3847 9.15574 19.3847H24.2344C24.5581 19.3847 24.8204 19.1223 24.8204 18.7987C24.8204 18.4752 24.5581 18.2128 24.2344 18.2128Z" fill="#09A66D"/>
</svg>
